<svg preserveAspectRatio="none" overflow="visible" style="display: block;" width="138.85" height="82.1206" viewBox="0 0 138.85 82.1206" fill="none" xmlns="http://www.w3.org/2000/svg">
<g id="Frame 1321324117">
<path id="Vector 5" d="M30.9876 62.4263L12.4507 81.2552C12.0666 81.6454 11.5419 81.8651 10.9944 81.8651H138.625V0.119504L107.843 58.275C107.104 59.671 105.128 59.7368 104.298 58.3931L83.0295 23.969C82.1831 22.5991 80.1585 22.7007 79.4535 24.1484L57.0548 70.1461C56.5764 71.1286 55.4097 71.5609 54.4066 71.1273L33.2548 61.9842C32.4802 61.6494 31.5795 61.825 30.9876 62.4263Z" fill="url(#paint0_linear_0_65)"/>
<path id="Vector 7" d="M31.3362 77.101L12.0894 81.8063C11.9305 81.8451 11.7676 81.8648 11.6041 81.8648H138.625V61.6001L107.285 51.9303C106.845 51.7948 106.373 51.8113 105.945 51.9772L81.2868 61.5195C81.1484 61.5731 81.0045 61.6114 80.8578 61.6338L56.4944 65.3547C56.2989 65.3845 56.1088 65.4426 55.93 65.5271L31.7239 76.9636C31.5997 77.0223 31.4698 77.0683 31.3362 77.101Z" fill="url(#paint1_linear_0_65)"/>
<path id="Vector 8" d="M0.167969 81.8648H11.6041C11.7676 81.8648 11.9305 81.8451 12.0894 81.8063L31.3362 77.101C31.4698 77.0683 31.5997 77.0223 31.7239 76.9636L55.93 65.5271C56.1088 65.4426 56.2989 65.3845 56.4944 65.3547L80.8578 61.6338C81.0045 61.6114 81.1484 61.5731 81.2868 61.5195L105.94 51.9792C106.371 51.8121 106.85 51.7976 107.292 51.936C119.183 55.6607 126.558 57.8143 138.625 61.6001" stroke="#FF383C" stroke-width="0.51091"/>
<path id="Vector 6" d="M0.167969 81.8651H10.9944C11.5419 81.8651 12.0666 81.6454 12.4507 81.2552L30.9876 62.4263C31.5795 61.825 32.4802 61.6494 33.2548 61.9842L54.4066 71.1273C55.4097 71.5609 56.5764 71.1286 57.0548 70.1461L79.4535 24.1484C80.1585 22.7007 82.1831 22.5991 83.0295 23.969L104.298 58.3931C105.128 59.7368 107.104 59.671 107.843 58.275L138.625 0.119504" stroke="#023D9D" stroke-width="0.51091"/>
</g>
<defs>
<linearGradient id="paint0_linear_0_65" x1="69.3963" y1="20.045" x2="69.3963" y2="81.8651" gradientUnits="userSpaceOnUse">
<stop stop-color="#E1E9F5"/>
<stop offset="1" stop-color="white" stop-opacity="0"/>
</linearGradient>
<linearGradient id="paint1_linear_0_65" x1="69.3963" y1="57.2938" x2="69.3963" y2="95.7967" gradientUnits="userSpaceOnUse">
<stop stop-color="#FFE0E1"/>
<stop offset="1" stop-color="white" stop-opacity="0"/>
</linearGradient>
</defs>
</svg>
